<svg width="17" height="16" viewBox="0 0 17 16" fill="none" xmlns="http://www.w3.org/2000/svg">
<path d="M13.3819 9.88321C12.8502 9.76882 12.4295 10.0157 12.057 10.2313C11.6755 10.4535 10.9502 11.0419 10.5344 10.8913C8.40571 10.0149 6.40363 8.1517 5.53696 6.01447C5.38421 5.58982 5.96988 4.85986 6.19043 4.47389C6.40445 4.10026 6.64623 3.67562 6.53596 3.13987C6.4363 2.65844 5.14732 1.01827 4.69152 0.569759C4.39092 0.273493 4.08297 0.110546 3.76686 0.0842117C2.57835 0.033188 1.25097 1.61903 1.01817 1.99842C0.434947 2.80739 0.438215 3.88382 1.02798 5.18904C2.44929 8.69486 7.82494 13.9857 11.3439 15.4604C11.9933 15.7641 12.5871 15.9163 13.1205 15.9163C13.6425 15.9163 14.1073 15.7707 14.5067 15.4818C14.8081 15.3082 16.459 13.9149 16.4157 12.6944C16.3895 12.3834 16.227 12.0723 15.9346 11.7711C15.4894 11.3111 13.8598 9.98361 13.3819 9.88321Z" fill="url(#paint0_linear_136_3)"/>
<defs>
<linearGradient id="paint0_linear_136_3" x1="0.580204" y1="7.99159" x2="16.4153" y2="7.99159" gradientUnits="userSpaceOnUse">
<stop stop-color="#10C37B"/>
<stop offset="1" stop-color="#42B0FF"/>
</linearGradient>
</defs>
</svg>
