<svg width="89" height="85" viewBox="0 0 89 85" fill="none" xmlns="http://www.w3.org/2000/svg">
<g filter="url(#filter0_b_24_783)">
<mask id="path-1-outside-1_24_783" maskUnits="userSpaceOnUse" x="0" y="14.8545" width="71" height="71" fill="black">
<rect fill="white" y="14.8545" width="71" height="71"/>
<path d="M50.1807 15.8545H20.4459C8.81952 15.8545 1 23.9638 1 36.0256V63.8632C1 75.8909 8.81952 84.0002 20.4459 84.0002H50.1807C61.8071 84.0002 69.5923 75.8909 69.5923 63.8632V36.0256C69.5923 23.9638 61.8071 15.8545 50.1807 15.8545Z"/>
</mask>
<path d="M50.1807 15.8545H20.4459C8.81952 15.8545 1 23.9638 1 36.0256V63.8632C1 75.8909 8.81952 84.0002 20.4459 84.0002H50.1807C61.8071 84.0002 69.5923 75.8909 69.5923 63.8632V36.0256C69.5923 23.9638 61.8071 15.8545 50.1807 15.8545Z" fill="url(#paint0_linear_24_783)"/>
<path d="M50.1807 16.8545C50.7329 16.8545 51.1807 16.4068 51.1807 15.8545C51.1807 15.3022 50.7329 14.8545 50.1807 14.8545V16.8545ZM50.1807 14.8545C49.6284 14.8545 49.1807 15.3022 49.1807 15.8545C49.1807 16.4068 49.6284 16.8545 50.1807 16.8545V14.8545ZM50.1807 14.8545H20.4459V16.8545H50.1807V14.8545ZM20.4459 14.8545C14.392 14.8545 9.26019 16.9711 5.64315 20.7228C2.02916 24.4714 0 29.7761 0 36.0256H2C2 30.2134 3.8806 25.4325 7.08297 22.111C10.2823 18.7925 14.8734 16.8545 20.4459 16.8545V14.8545ZM0 36.0256V63.8632H2V36.0256H0ZM0 63.8632C0 70.0964 2.02962 75.3926 5.64357 79.1366C9.26049 82.8837 14.392 85.0002 20.4459 85.0002V83.0002C14.8734 83.0002 10.282 81.0621 7.08255 77.7476C3.88014 74.43 2 69.6577 2 63.8632H0ZM20.4459 85.0002H50.1807V83.0002H20.4459V85.0002ZM50.1807 85.0002C56.2347 85.0002 61.3582 82.8835 64.9667 79.1357C68.572 75.3913 70.5923 70.0952 70.5923 63.8632H68.5923C68.5923 69.6589 66.7199 74.4313 63.526 77.7485C60.3353 81.0623 55.753 83.0002 50.1807 83.0002V85.0002ZM70.5923 63.8632V36.0256H68.5923V63.8632H70.5923ZM70.5923 36.0256C70.5923 29.7773 68.5725 24.4727 64.9671 20.7237C61.3585 16.9713 56.2348 14.8545 50.1807 14.8545V16.8545C55.753 16.8545 60.335 18.7924 63.5256 22.1101C66.7195 25.4312 68.5923 30.2122 68.5923 36.0256H70.5923Z" fill="url(#paint1_linear_24_783)" mask="url(#path-1-outside-1_24_783)"/>
</g>
<path d="M33.2777 54.547C32.1087 55.7152 30.2151 55.7179 29.0427 54.5531L24.6029 50.1419C23.5934 49.139 21.9675 49.1267 20.9429 50.1142C19.8887 51.1304 19.8736 52.8139 20.9094 53.8489L29.0488 61.9813C30.2178 63.1494 32.1113 63.152 33.2836 61.9874L52.3089 43.0859C53.3541 42.0475 53.3617 40.3591 52.3259 39.3113C51.2844 38.2576 49.5844 38.2524 48.5363 39.2996L33.2777 54.547Z" fill="white"/>
<defs>
<filter id="filter0_b_24_783" x="-24" y="-9.14551" width="118.592" height="118.146" filterUnits="userSpaceOnUse" color-interpolation-filters="sRGB">
<feFlood flood-opacity="0" result="BackgroundImageFix"/>
<feGaussianBlur in="BackgroundImageFix" stdDeviation="12"/>
<feComposite in2="SourceAlpha" operator="in" result="effect1_backgroundBlur_24_783"/>
<feBlend mode="normal" in="SourceGraphic" in2="effect1_backgroundBlur_24_783" result="shape"/>
</filter>
<linearGradient id="paint0_linear_24_783" x1="35.2961" y1="15.8545" x2="35.2961" y2="84.0002" gradientUnits="userSpaceOnUse">
<stop offset="0.203125" stop-color="#00A663"/>
<stop offset="1" stop-color="#17D689"/>
</linearGradient>
<linearGradient id="paint1_linear_24_783" x1="8.2" y1="35.2642" x2="55.3771" y2="77.9352" gradientUnits="userSpaceOnUse">
<stop stop-color="#F3C4FF" stop-opacity="0.81"/>
<stop offset="1" stop-color="white" stop-opacity="0"/>
</linearGradient>
</defs>
</svg>
