<svg width="83" height="85" viewBox="0 0 83 85" fill="none" xmlns="http://www.w3.org/2000/svg">
<g filter="url(#filter0_b_24_744)">
<path d="M80.9714 58.1358L51.5329 6.8614C48.4554 1.38397 41.4501 -0.629788 35.943 2.43516C34.0398 3.44204 32.5011 5.00874 31.4888 6.82515L1.84775 58.4983C-0.541351 64.2939 2.29317 70.9795 8.16468 73.3558C9.33898 73.7988 10.5943 74.0848 11.8496 74.1613H71.1316C74.1686 74.0002 76.9626 72.6711 79.0277 70.4197C81.0929 68.1603 82.1457 65.2242 81.9837 62.2036C81.9028 60.9107 81.6193 59.6662 80.9714 58.1358Z" fill="#FEC009" fill-opacity="0.5"/>
<path d="M81.4319 57.9409C81.424 57.9223 81.415 57.9043 81.405 57.8868L51.9688 6.61649C51.9684 6.61586 51.9681 6.61523 51.9677 6.6146C48.7567 0.901811 41.4525 -1.20009 35.7044 1.9957C33.7142 3.04988 32.1094 4.68572 31.0535 6.57903C31.053 6.57994 31.0525 6.58084 31.052 6.58174L1.41404 58.2495C1.40327 58.2682 1.39373 58.2877 1.38548 58.3077C-1.1108 64.3633 1.85204 71.3404 7.97711 73.8193L7.97705 73.8194L7.98819 73.8236C9.20507 74.2827 10.5095 74.5805 11.8191 74.6604C11.8293 74.661 11.8394 74.6613 11.8496 74.6613H71.1316C71.1404 74.6613 71.1492 74.661 71.1581 74.6606C74.3273 74.4925 77.2436 73.1044 79.3962 70.7577L79.3968 70.757C81.5517 68.3995 82.6522 65.3325 82.483 62.1768L82.4828 62.1723C82.3979 60.818 82.0997 59.5184 81.4319 57.9409Z" stroke="url(#paint0_linear_24_744)" stroke-linecap="round" stroke-linejoin="round"/>
</g>
<g filter="url(#filter1_bd_24_744)">
<mask id="path-3-inside-1_24_744" fill="white">
<path fill-rule="evenodd" clip-rule="evenodd" d="M41.2711 47.5993C44.319 47.5993 46.7954 45.0758 46.7954 42.0552V24.2523C46.7954 21.2253 44.319 18.7773 41.2711 18.7773C38.2232 18.7773 35.6833 21.2253 35.6833 24.2523V42.0552C35.6833 45.0758 38.2232 47.5993 41.2711 47.5993ZM35.6823 63.5809C35.6823 66.5952 38.2221 69.1187 41.27 69.1187C44.3179 69.1187 46.7943 66.5952 46.7943 63.5117C46.7943 60.4973 44.3179 58.0368 41.27 58.0368C38.2221 58.0368 35.6823 60.554 35.6823 63.5809Z"/>
</mask>
<path fill-rule="evenodd" clip-rule="evenodd" d="M41.2711 47.5993C44.319 47.5993 46.7954 45.0758 46.7954 42.0552V24.2523C46.7954 21.2253 44.319 18.7773 41.2711 18.7773C38.2232 18.7773 35.6833 21.2253 35.6833 24.2523V42.0552C35.6833 45.0758 38.2232 47.5993 41.2711 47.5993ZM35.6823 63.5809C35.6823 66.5952 38.2221 69.1187 41.27 69.1187C44.3179 69.1187 46.7943 66.5952 46.7943 63.5117C46.7943 60.4973 44.3179 58.0368 41.27 58.0368C38.2221 58.0368 35.6823 60.554 35.6823 63.5809Z" fill="url(#paint1_linear_24_744)"/>
<path d="M46.3954 42.0552C46.3954 44.858 44.0949 47.1993 41.2711 47.1993V47.9993C44.543 47.9993 47.1954 45.2936 47.1954 42.0552H46.3954ZM46.3954 24.2523V42.0552H47.1954V24.2523H46.3954ZM41.2711 19.1773C44.1017 19.1773 46.3954 21.4499 46.3954 24.2523H47.1954C47.1954 21.0007 44.5362 18.3773 41.2711 18.3773V19.1773ZM36.0833 24.2523C36.0833 21.4558 38.4344 19.1773 41.2711 19.1773V18.3773C38.012 18.3773 35.2833 20.9948 35.2833 24.2523H36.0833ZM36.0833 42.0552V24.2523H35.2833V42.0552H36.0833ZM41.2711 47.1993C38.4413 47.1993 36.0833 44.8521 36.0833 42.0552H35.2833C35.2833 45.2995 38.0051 47.9993 41.2711 47.9993V47.1993ZM41.27 68.7187C38.44 68.7187 36.0823 66.3712 36.0823 63.5809H35.2823C35.2823 66.8192 38.0043 69.5187 41.27 69.5187V68.7187ZM46.3943 63.5117C46.3943 66.3804 44.0909 68.7187 41.27 68.7187V69.5187C44.5449 69.5187 47.1943 66.8101 47.1943 63.5117H46.3943ZM41.27 58.4368C44.1001 58.4368 46.3943 60.7213 46.3943 63.5117H47.1943C47.1943 60.2733 44.5357 57.6368 41.27 57.6368V58.4368ZM36.0823 63.5809C36.0823 60.778 38.44 58.4368 41.27 58.4368V57.6368C38.0043 57.6368 35.2823 60.33 35.2823 63.5809H36.0823Z" fill="url(#paint2_linear_24_744)" mask="url(#path-3-inside-1_24_744)"/>
</g>
<defs>
<filter id="filter0_b_24_744" x="-24.0005" y="-24" width="131" height="123.161" filterUnits="userSpaceOnUse" color-interpolation-filters="sRGB">
<feFlood flood-opacity="0" result="BackgroundImageFix"/>
<feGaussianBlur in="BackgroundImageFix" stdDeviation="12"/>
<feComposite in2="SourceAlpha" operator="in" result="effect1_backgroundBlur_24_744"/>
<feBlend mode="normal" in="SourceGraphic" in2="effect1_backgroundBlur_24_744" result="shape"/>
</filter>
<filter id="filter1_bd_24_744" x="20.6823" y="3.77734" width="41.1132" height="80.3418" filterUnits="userSpaceOnUse" color-interpolation-filters="sRGB">
<feFlood flood-opacity="0" result="BackgroundImageFix"/>
<feGaussianBlur in="BackgroundImageFix" stdDeviation="7.5"/>
<feComposite in2="SourceAlpha" operator="in" result="effect1_backgroundBlur_24_744"/>
<feColorMatrix in="SourceAlpha" type="matrix" values="0 0 0 0 0 0 0 0 0 0 0 0 0 0 0 0 0 0 127 0" result="hardAlpha"/>
<feOffset dx="5" dy="5"/>
<feGaussianBlur stdDeviation="5"/>
<feColorMatrix type="matrix" values="0 0 0 0 1 0 0 0 0 0.376471 0 0 0 0 0.580392 0 0 0 1 0"/>
<feBlend mode="normal" in2="effect1_backgroundBlur_24_744" result="effect2_dropShadow_24_744"/>
<feBlend mode="normal" in="SourceGraphic" in2="effect2_dropShadow_24_744" result="shape"/>
</filter>
<linearGradient id="paint0_linear_24_744" x1="13.8939" y1="9.52338" x2="59.3507" y2="71.8549" gradientUnits="userSpaceOnUse">
<stop stop-color="white" stop-opacity="0.25"/>
<stop offset="1" stop-color="white" stop-opacity="0"/>
</linearGradient>
<linearGradient id="paint1_linear_24_744" x1="41.2401" y1="21.617" x2="31.0364" y2="20.6719" gradientUnits="userSpaceOnUse">
<stop stop-color="white" stop-opacity="0.75"/>
<stop offset="1" stop-color="white" stop-opacity="0.2"/>
</linearGradient>
<linearGradient id="paint2_linear_24_744" x1="37.4513" y1="24.6422" x2="54.1649" y2="29.2119" gradientUnits="userSpaceOnUse">
<stop stop-color="white" stop-opacity="0.25"/>
<stop offset="1" stop-color="white" stop-opacity="0"/>
</linearGradient>
</defs>
</svg>
