<svg width="126" height="22" viewBox="0 0 126 22" fill="none" xmlns="http://www.w3.org/2000/svg">
<path d="M11 0L13.4697 7.60081H21.4616L14.996 12.2984L17.4656 19.8992L11 15.2016L4.53436 19.8992L7.00402 12.2984L0.538379 7.60081H8.53035L11 0Z" fill="#FEC009"/>
<path d="M37 0L39.4697 7.60081H47.4616L40.996 12.2984L43.4656 19.8992L37 15.2016L30.5344 19.8992L33.004 12.2984L26.5384 7.60081H34.5303L37 0Z" fill="#FEC009"/>
<path d="M63 0L65.4697 7.60081H73.4616L66.996 12.2984L69.4656 19.8992L63 15.2016L56.5344 19.8992L59.004 12.2984L52.5384 7.60081H60.5303L63 0Z" fill="#FEC009"/>
<path d="M89 0L91.4697 7.60081H99.4616L92.996 12.2984L95.4656 19.8992L89 15.2016L82.5344 19.8992L85.004 12.2984L78.5384 7.60081H86.5303L89 0Z" fill="#FEC009"/>
<path d="M115 0L117.47 7.60081H125.462L118.996 12.2984L121.466 19.8992L115 15.2016L108.534 19.8992L111.004 12.2984L104.538 7.60081H112.53L115 0Z" fill="#FEC009"/>
</svg>
